{
    "accessors" : [
        {
            "bufferView" : 0,
            "componentType" : 5123,
            "count" : 258,
            "max" : [
                257
            ],
            "min" : [
                0
            ],
            "type" : "SCALAR"
        },
        {
            "bufferView" : 1,
            "componentType" : 5126,
            "count" : 258,
            "max" : [
                1.2687643766403198,
                2.113987922668457,
                1.8325870037078857
            ],
            "min" : [
                -1.5705163478851318,
                -1.7545536756515503,
                -1.0260286331176758
            ],
            "type" : "VEC3"
        },
        {
            "bufferView" : 2,
            "componentType" : 5126,
            "count" : 258,
            "max" : [
                0.9897637963294983,
                0.975000262260437,
                0.9786616563796997
            ],
            "min" : [
                -0.8618241548538208,
                -0.9789291620254517,
                -0.9971929788589478
            ],
            "type" : "VEC3"
        },
        {
            "bufferView" : 3,
            "componentType" : 5121,
            "count" : 315,
            "max" : [
                214
            ],
            "min" : [
                0
            ],
            "type" : "SCALAR"
        },
        {
            "bufferView" : 4,
            "componentType" : 5126,
            "count" : 215,
            "max" : [
                -0.3359764814376831,
                1.1007078886032104,
                2.259629249572754
            ],
            "min" : [
                -1.8169753551483154,
                -0.5350185632705688,
                0.5162736177444458
            ],
            "type" : "VEC3"
        },
        {
            "bufferView" : 5,
            "componentType" : 5126,
            "count" : 215,
            "max" : [
                0.9530766606330872,
                0.8814854621887207,
                0.9067344665527344
            ],
            "min" : [
                -0.9535728096961975,
                -0.98436039686203,
                -0.9333717823028564
            ],
            "type" : "VEC3"
        }
    ],
    "asset" : {
        "generator" : "Khronos Blender glTF 2.0 exporter",
        "version" : "2.0"
    },
    "bufferViews" : [
        {
            "buffer" : 0,
            "byteLength" : 516,
            "byteOffset" : 0,
            "target" : 34963
        },
        {
            "buffer" : 0,
            "byteLength" : 3096,
            "byteOffset" : 516,
            "target" : 34962
        },
        {
            "buffer" : 0,
            "byteLength" : 3096,
            "byteOffset" : 3612,
            "target" : 34962
        },
        {
            "buffer" : 0,
            "byteLength" : 315,
            "byteOffset" : 6708,
            "target" : 34963
        },
        {
            "buffer" : 0,
            "byteLength" : 2580,
            "byteOffset" : 7024,
            "target" : 34962
        },
        {
            "buffer" : 0,
            "byteLength" : 2580,
            "byteOffset" : 9604,
            "target" : 34962
        }
    ],
    "buffers" : [
        {
            "byteLength" : 12184,
            "uri" : "tree.bin"
        }
    ],
    "meshes" : [
        {
            "name" : "Icosphere.005",
            "primitives" : [
                {
                    "attributes" : {
                        "NORMAL" : 2,
                        "POSITION" : 1
                    },
                    "indices" : 0
                },
                {
                    "attributes" : {
                        "NORMAL" : 5,
                        "POSITION" : 4
                    },
                    "indices" : 3
                }
            ]
        }
    ],
    "nodes" : [
        {
            "mesh" : 0,
            "name" : "Icosphere.005",
            "rotation" : [
                -0.05804595351219177,
                -0.5127683281898499,
                0.7951241731643677,
                0.31855443120002747
            ],
            "scale" : [
                0.8280794620513916,
                0.8280795216560364,
                0.8280795812606812
            ],
            "translation" : [
                0.0,
                2.1510446071624756,
                -0.0
            ]
        }
    ],
    "scene" : 0,
    "scenes" : [
        {
            "name" : "Scene",
            "nodes" : [
                0
            ]
        }
    ]
}
