{
    "accessors" : [
        {
            "bufferView" : 0,
            "componentType" : 5121,
            "count" : 150,
            "max" : [
                149
            ],
            "min" : [
                0
            ],
            "type" : "SCALAR"
        },
        {
            "bufferView" : 1,
            "componentType" : 5126,
            "count" : 150,
            "max" : [
                1.2687643766403198,
                2.113987922668457,
                1.187160611152649
            ],
            "min" : [
                -1.5301765203475952,
                -1.7545536756515503,
                -1.0260286331176758
            ],
            "type" : "VEC3"
        },
        {
            "bufferView" : 2,
            "componentType" : 5126,
            "count" : 150,
            "max" : [
                0.9897637963294983,
                0.8844427466392517,
                0.9786616563796997
            ],
            "min" : [
                -0.8549573421478271,
                -0.8777241110801697,
                -0.9971929788589478
            ],
            "type" : "VEC3"
        },
        {
            "bufferView" : 3,
            "componentType" : 5121,
            "count" : 72,
            "max" : [
                71
            ],
            "min" : [
                0
            ],
            "type" : "SCALAR"
        },
        {
            "bufferView" : 4,
            "componentType" : 5126,
            "count" : 72,
            "max" : [
                2.6908979415893555,
                2.364933490753174,
                2.595733404159546
            ],
            "min" : [
                -2.142059803009033,
                -2.3627545833587646,
                -2.149657964706421
            ],
            "type" : "VEC3"
        },
        {
            "bufferView" : 5,
            "componentType" : 5126,
            "count" : 72,
            "max" : [
                0.9130077958106995,
                0.9425443410873413,
                0.9171197414398193
            ],
            "min" : [
                -0.9824591875076294,
                -0.7321666479110718,
                -0.8898152709007263
            ],
            "type" : "VEC3"
        },
        {
            "bufferView" : 6,
            "componentType" : 5121,
            "count" : 36,
            "max" : [
                35
            ],
            "min" : [
                0
            ],
            "type" : "SCALAR"
        },
        {
            "bufferView" : 7,
            "componentType" : 5126,
            "count" : 36,
            "max" : [
                1.5920672416687012,
                2.453984260559082,
                2.081014394760132
            ],
            "min" : [
                -1.2213644981384277,
                -1.6134216785430908,
                -2.030996322631836
            ],
            "type" : "VEC3"
        },
        {
            "bufferView" : 8,
            "componentType" : 5126,
            "count" : 36,
            "max" : [
                0.9667270183563232,
                0.6980246901512146,
                0.7061425447463989
            ],
            "min" : [
                -0.9633957147598267,
                -0.8571040630340576,
                -0.8583973050117493
            ],
            "type" : "VEC3"
        },
        {
            "bufferView" : 9,
            "componentType" : 5121,
            "count" : 315,
            "max" : [
                214
            ],
            "min" : [
                0
            ],
            "type" : "SCALAR"
        },
        {
            "bufferView" : 10,
            "componentType" : 5126,
            "count" : 215,
            "max" : [
                0.5569772720336914,
                2.5625343322753906,
                1.1230608224868774
            ],
            "min" : [
                -0.5373401641845703,
                -0.3289407789707184,
                -1.1931489706039429
            ],
            "type" : "VEC3"
        },
        {
            "bufferView" : 11,
            "componentType" : 5126,
            "count" : 215,
            "max" : [
                0.9985572099685669,
                0.767023503780365,
                0.9750660061836243
            ],
            "min" : [
                -0.9900646209716797,
                -1.0,
                -0.9969556331634521
            ],
            "type" : "VEC3"
        }
    ],
    "asset" : {
        "generator" : "Khronos Blender glTF 2.0 exporter",
        "version" : "2.0"
    },
    "bufferViews" : [
        {
            "buffer" : 0,
            "byteLength" : 150,
            "byteOffset" : 0,
            "target" : 34963
        },
        {
            "buffer" : 0,
            "byteLength" : 1800,
            "byteOffset" : 152,
            "target" : 34962
        },
        {
            "buffer" : 0,
            "byteLength" : 1800,
            "byteOffset" : 1952,
            "target" : 34962
        },
        {
            "buffer" : 0,
            "byteLength" : 72,
            "byteOffset" : 3752,
            "target" : 34963
        },
        {
            "buffer" : 0,
            "byteLength" : 864,
            "byteOffset" : 3824,
            "target" : 34962
        },
        {
            "buffer" : 0,
            "byteLength" : 864,
            "byteOffset" : 4688,
            "target" : 34962
        },
        {
            "buffer" : 0,
            "byteLength" : 36,
            "byteOffset" : 5552,
            "target" : 34963
        },
        {
            "buffer" : 0,
            "byteLength" : 432,
            "byteOffset" : 5588,
            "target" : 34962
        },
        {
            "buffer" : 0,
            "byteLength" : 432,
            "byteOffset" : 6020,
            "target" : 34962
        },
        {
            "buffer" : 0,
            "byteLength" : 315,
            "byteOffset" : 6452,
            "target" : 34963
        },
        {
            "buffer" : 0,
            "byteLength" : 2580,
            "byteOffset" : 6768,
            "target" : 34962
        },
        {
            "buffer" : 0,
            "byteLength" : 2580,
            "byteOffset" : 9348,
            "target" : 34962
        }
    ],
    "buffers" : [
        {
            "byteLength" : 11928,
            "uri" : "WhiteTree.bin"
        }
    ],
    "meshes" : [
        {
            "name" : "Icosphere.005",
            "primitives" : [
                {
                    "attributes" : {
                        "NORMAL" : 2,
                        "POSITION" : 1
                    },
                    "indices" : 0
                }
            ]
        },
        {
            "name" : "Icosphere.003",
            "primitives" : [
                {
                    "attributes" : {
                        "NORMAL" : 5,
                        "POSITION" : 4
                    },
                    "indices" : 3
                }
            ]
        },
        {
            "name" : "Icosphere.004",
            "primitives" : [
                {
                    "attributes" : {
                        "NORMAL" : 8,
                        "POSITION" : 7
                    },
                    "indices" : 6
                }
            ]
        },
        {
            "name" : "Cylinder.001",
            "primitives" : [
                {
                    "attributes" : {
                        "NORMAL" : 11,
                        "POSITION" : 10
                    },
                    "indices" : 9
                }
            ]
        }
    ],
    "nodes" : [
        {
            "mesh" : 3,
            "name" : "Cylinder.001"
        },
        {
            "mesh" : 1,
            "name" : "Icosphere.003",
            "rotation" : [
                -0.04587274417281151,
                0.2956705689430237,
                0.5807356834411621,
                0.757113516330719
            ],
            "scale" : [
                0.5306433439254761,
                0.7612628936767578,
                0.42518460750579834
            ],
            "translation" : [
                0.3978847861289978,
                2.448582410812378,
                1.3948144912719727
            ]
        },
        {
            "mesh" : 2,
            "name" : "Icosphere.004",
            "rotation" : [
                0.11119640618562698,
                -0.08681077510118484,
                -0.05257607623934746,
                0.9886025786399841
            ],
            "scale" : [
                0.4665215313434601,
                0.46652156114578247,
                0.46652156114578247
            ],
            "translation" : [
                -0.1410525143146515,
                2.220773696899414,
                -1.5032012462615967
            ]
        },
        {
            "mesh" : 0,
            "name" : "Icosphere.005",
            "rotation" : [
                -0.058046046644449234,
                -0.5127683281898499,
                0.7951241731643677,
                0.3185543417930603
            ],
            "scale" : [
                1.5004504919052124,
                1.500450611114502,
                1.5004507303237915
            ],
            "translation" : [
                0.0,
                3.6385300159454346,
                -0.0
            ]
        }
    ],
    "scene" : 0,
    "scenes" : [
        {
            "name" : "Scene",
            "nodes" : [
                3,
                0,
                2,
                1
            ]
        }
    ]
}
